<?xml version="1.0" encoding="UTF-8"?>
<svg xmlns="http://www.w3.org/2000/svg" xmlns:xlink="http://www.w3.org/1999/xlink" width="360px" height="360px" viewBox="0 0 360 360" version="1.2">
<g id="surface59216">
<path style="fill:none;stroke-width:15;stroke-linecap:round;stroke-linejoin:round;stroke:rgb(15.686275%,20%,18.82353%);stroke-opacity:1;stroke-miterlimit:10;" d="M 220 20 L 140 20 L 140 100 L 220 100 "/>
<path style="fill:none;stroke-width:15;stroke-linecap:round;stroke-linejoin:round;stroke:rgb(15.686275%,20%,18.82353%);stroke-opacity:1;stroke-miterlimit:10;" d="M 220 140 L 140 140 L 140 180 L 220 180 L 220 220 L 140 220 "/>
<path style="fill:none;stroke-width:15;stroke-linecap:round;stroke-linejoin:round;stroke:rgb(15.686275%,20%,18.82353%);stroke-opacity:1;stroke-miterlimit:10;" d="M 140 340 L 140 260 L 220 260 L 220 300 L 140 300 L 200 340 L 220 340 L 220 320 L 200 320 L 180 340 L 160 340 "/>
<path style="fill:none;stroke-width:15;stroke-linecap:round;stroke-linejoin:round;stroke:rgb(15.686275%,20%,18.82353%);stroke-opacity:1;stroke-miterlimit:10;" d="M 160 280 L 200 280 "/>
<path style="fill:none;stroke-width:15;stroke-linecap:round;stroke-linejoin:round;stroke:rgb(15.686275%,20%,18.82353%);stroke-opacity:1;stroke-miterlimit:10;" d="M 220 160 L 160 160 L 200 200 L 140 200 "/>
<path style="fill:none;stroke-width:15;stroke-linecap:round;stroke-linejoin:round;stroke:rgb(15.686275%,20%,18.82353%);stroke-opacity:1;stroke-miterlimit:10;" d="M 180 40 L 180 80 "/>
<path style="fill:none;stroke-width:15;stroke-linecap:round;stroke-linejoin:round;stroke:rgb(15.686275%,20%,18.82353%);stroke-opacity:1;stroke-miterlimit:10;" d="M 200 40 L 200 80 "/>
<path style="fill:none;stroke-width:15;stroke-linecap:round;stroke-linejoin:round;stroke:rgb(15.686275%,20%,18.82353%);stroke-opacity:1;stroke-miterlimit:10;" d="M 160 80 L 160 40 L 220 80 L 220 40 "/>
<path style="fill:none;stroke-width:15;stroke-linecap:round;stroke-linejoin:round;stroke:rgb(15.686275%,20%,18.82353%);stroke-opacity:1;stroke-miterlimit:10;" d="M 220 120 L 140 120 "/>
<path style="fill:none;stroke-width:15;stroke-linecap:round;stroke-linejoin:round;stroke:rgb(15.686275%,20%,18.82353%);stroke-opacity:1;stroke-miterlimit:10;" d="M 140 240 L 220 240 "/>
<path style="fill:none;stroke-width:15;stroke-linecap:round;stroke-linejoin:round;stroke:rgb(15.686275%,20%,18.82353%);stroke-opacity:1;stroke-miterlimit:10;" d="M 240 20 L 240 340 "/>
<path style="fill:none;stroke-width:15;stroke-linecap:round;stroke-linejoin:round;stroke:rgb(15.686275%,20%,18.82353%);stroke-opacity:1;stroke-miterlimit:10;" d="M 120 20 L 120 340 "/>
<path style="fill:none;stroke-width:15;stroke-linecap:round;stroke-linejoin:round;stroke:rgb(15.686275%,20%,18.82353%);stroke-opacity:1;stroke-miterlimit:10;" d="M 140 240 L 160 240 L 120 240 "/>
<path style="fill:none;stroke-width:15;stroke-linecap:round;stroke-linejoin:round;stroke:rgb(15.686275%,20%,18.82353%);stroke-opacity:1;stroke-miterlimit:10;" d="M 220 240 L 240 240 "/>
<path style="fill:none;stroke-width:15;stroke-linecap:round;stroke-linejoin:round;stroke:rgb(15.686275%,20%,18.82353%);stroke-opacity:1;stroke-miterlimit:10;" d="M 220 120 L 240 120 "/>
<path style="fill:none;stroke-width:15;stroke-linecap:round;stroke-linejoin:round;stroke:rgb(15.686275%,20%,18.82353%);stroke-opacity:1;stroke-miterlimit:10;" d="M 140 120 L 120 120 "/>
</g>
</svg>
